<?xml version="1.0" standalone="no"?>
<!DOCTYPE svg PUBLIC "-//W3C//DTD SVG 20010904//EN"
 "http://www.w3.org/TR/2001/REC-SVG-20010904/DTD/svg10.dtd">
<svg version="1.0" xmlns="http://www.w3.org/2000/svg"
 width="534.000000pt" height="537.000000pt" viewBox="0 0 534.000000 537.000000"
 preserveAspectRatio="xMidYMid meet">

<g transform="translate(0.000000,537.000000) scale(0.100000,-0.100000)"
fill="#000000" stroke="none">
<path d="M2495 5349 c-456 -33 -909 -187 -1287 -438 -170 -113 -291 -216 -448
-378 -386 -398 -628 -893 -717 -1463 -25 -162 -25 -616 0 -775 97 -609 337
-1086 756 -1506 357 -356 752 -580 1237 -702 249 -63 335 -72 654 -71 263 0
296 2 430 27 455 82 830 247 1195 526 118 90 344 312 439 431 215 270 387 603
481 929 121 423 137 897 45 1326 -186 861 -797 1585 -1610 1908 -373 148 -790
214 -1175 186z m-904 -987 c31 -11 74 -31 94 -45 21 -14 254 -238 517 -498
l479 -472 482 480 c513 511 516 513 648 548 250 67 516 -103 569 -362 23 -111
-6 -255 -71 -348 -15 -22 -239 -251 -498 -510 l-471 -470 483 -485 c435 -437
486 -491 514 -550 93 -195 61 -391 -89 -543 -153 -155 -402 -179 -585 -57 -26
18 -260 244 -518 501 l-470 469 -470 -471 c-259 -259 -493 -486 -520 -504
-185 -121 -437 -89 -588 75 -113 121 -153 277 -112 435 32 120 44 135 549 643
l480 482 -480 483 c-505 507 -517 522 -549 642 -43 165 1 323 124 445 104 103
205 142 346 136 45 -2 104 -12 136 -24z"/>
</g>
</svg>
